<svg width="18" height="18" viewBox="0 0 18 18" fill="none" xmlns="http://www.w3.org/2000/svg">
<path d="M13.9556 1.78458H4.04444C2.79829 1.78458 1.78458 2.79829 1.78458 4.04444V13.9556C1.78458 15.2017 2.79829 16.2154 4.04444 16.2154H13.9556C15.2017 16.2154 16.2154 15.2017 16.2154 13.9556V4.04444C16.2154 2.79829 15.2017 1.78458 13.9556 1.78458ZM6.53998 3.07593H11.46V7.28573C11.46 7.79582 11.0452 8.21228 10.5335 8.21228H7.46491C6.95482 8.21228 6.53836 7.79743 6.53836 7.28573V3.07593H6.53998ZM14.9241 13.9556C14.9241 14.4899 14.4899 14.9241 13.9556 14.9241H4.04444C3.51014 14.9241 3.07593 14.4899 3.07593 13.9556V4.04444C3.07593 3.51014 3.51014 3.07593 4.04444 3.07593H5.24863V7.28573C5.24863 8.50767 6.24297 9.50363 7.46652 9.50363H10.5351C11.757 9.50363 12.753 8.50929 12.753 7.28573V3.07593H13.9556C14.4899 3.07593 14.9241 3.51014 14.9241 4.04444V13.9556Z" fill="#A2A2A2"/>
<path d="M10.0056 7.08093C10.3623 7.08093 10.6513 6.79199 10.6513 6.43525V4.92114C10.6513 4.56441 10.3623 4.27547 10.0056 4.27547C9.64886 4.27547 9.35992 4.56441 9.35992 4.92114V6.43525C9.35992 6.79037 9.64886 7.08093 10.0056 7.08093Z" fill="#A2A2A2"/>
</svg>
