<svg width="17" height="16" viewBox="0 0 17 16" fill="none" xmlns="http://www.w3.org/2000/svg">
<g clip-path="url(#clip0_76_980)">
<path d="M8.06231 10.4107C8.27448 10.4107 8.47797 10.3265 8.628 10.1764C8.77803 10.0264 8.86231 9.82291 8.86231 9.61073V3.21067H11.3183C11.417 3.21065 11.5121 3.17418 11.5855 3.10827L11.6359 3.05387C11.6678 3.01211 11.6912 2.96448 11.7047 2.91369C11.7182 2.86291 11.7215 2.80996 11.7145 2.75788C11.7075 2.7058 11.6904 2.65561 11.664 2.61017C11.6376 2.56473 11.6025 2.52494 11.5607 2.49306L8.45351 0.121836C8.34871 0.0417645 8.22046 -0.00154806 8.08857 -0.00140345C7.95669 -0.00125884 7.82852 0.0423349 7.7239 0.122636L4.63987 2.49466C4.5738 2.54559 4.52531 2.61589 4.50118 2.69574C4.47705 2.77559 4.47848 2.86099 4.50529 2.93998C4.53209 3.01898 4.58291 3.08762 4.65065 3.1363C4.71839 3.18497 4.79966 3.21126 4.88307 3.21147H7.2623V9.61153C7.2623 9.82371 7.34658 10.0272 7.49661 10.1772C7.64665 10.3273 7.85013 10.4115 8.06231 10.4115V10.4107ZM12.3687 4.81628C12.1663 4.84037 11.9806 4.94086 11.8498 5.09722C11.7189 5.25358 11.6527 5.45402 11.6646 5.65758C11.6766 5.86113 11.7658 6.05244 11.9141 6.19242C12.0623 6.3324 12.2584 6.41047 12.4624 6.4107H14.4624V14.4108H1.66224V6.4107H3.66226C3.87444 6.4107 4.07792 6.32641 4.22795 6.17638C4.37798 6.02635 4.46227 5.82287 4.46227 5.61069C4.46227 5.39852 4.37798 5.19503 4.22795 5.045C4.07792 4.89497 3.87444 4.81068 3.66226 4.81068H1.66224C1.45212 4.81068 1.24406 4.85207 1.04994 4.93248C0.855819 5.01289 0.679434 5.13074 0.530859 5.27932C0.382284 5.42789 0.264428 5.60428 0.184019 5.7984C0.103611 5.99252 0.0622253 6.20058 0.0622253 6.4107V14.4108C0.0622253 14.6209 0.103611 14.829 0.184019 15.0231C0.264428 15.2172 0.382284 15.3936 0.530859 15.5422C0.679434 15.6907 0.855819 15.8086 1.04994 15.889C1.24406 15.9694 1.45212 16.0108 1.66224 16.0108H14.4624C14.6725 16.0108 14.8805 15.9694 15.0747 15.889C15.2688 15.8086 15.4452 15.6907 15.5938 15.5422C15.7423 15.3936 15.8602 15.2172 15.9406 15.0231C16.021 14.829 16.0624 14.6209 16.0624 14.4108V6.4107C16.0624 6.20058 16.021 5.99252 15.9406 5.7984C15.8602 5.60428 15.7423 5.42789 15.5938 5.27932C15.4452 5.13074 15.2688 5.01289 15.0747 4.93248C14.8805 4.85207 14.6725 4.81068 14.4624 4.81068H12.4624L12.3687 4.81628Z" fill="#A2A2A2"/>
</g>
<defs>
<clipPath id="clip0_76_980">
<rect width="16" height="16" fill="white" transform="translate(0.0623779)"/>
</clipPath>
</defs>
</svg>
