<svg width="19" height="18" viewBox="0 0 19 18" fill="none" xmlns="http://www.w3.org/2000/svg">
<path fill-rule="evenodd" clip-rule="evenodd" d="M1.20311 6.43399C0.366276 6.02704 0.47341 4.80263 1.36821 4.54707L17.1493 0.0400149C17.9145 -0.178543 18.622 0.528682 18.4034 1.29364L13.8945 17.0683C13.6389 17.9628 12.4139 18.0699 12.0068 17.2334L8.62438 10.2833C8.52506 10.0793 8.36011 9.91437 8.15593 9.81508L1.20311 6.43399ZM8.82163 8.44727L3.06053 5.6457L16.6894 1.7533L12.7954 15.3767L9.99275 9.61792C9.98241 9.59667 9.97178 9.5756 9.96088 9.5547L12.987 6.52977C13.2842 6.23276 13.2842 5.75121 12.987 5.4542C12.6899 5.15719 12.2081 5.15719 11.911 5.4542L8.88488 8.47913C8.86397 8.46823 8.84288 8.45761 8.82163 8.44727Z" fill="#4F4F4F"/>
<path fill-rule="evenodd" clip-rule="evenodd" d="M6.58069 11.6304C6.8669 11.9274 6.8669 12.409 6.58069 12.706L1.69473 17.7763C1.40852 18.0733 0.944476 18.0733 0.658263 17.7763C0.37205 17.4793 0.37205 16.9977 0.658263 16.7007L5.54422 11.6304C5.83043 11.3334 6.29447 11.3334 6.58069 11.6304Z" fill="#555555"/>
<path fill-rule="evenodd" clip-rule="evenodd" d="M3.64911 9.60221C3.93532 9.89922 3.93532 10.3808 3.64911 10.6778L1.69473 12.7059C1.40852 13.0029 0.944476 13.0029 0.658263 12.7059C0.37205 12.4089 0.37205 11.9273 0.658263 11.6303L2.61264 9.60221C2.89886 9.3052 3.3629 9.3052 3.64911 9.60221Z" fill="#555555"/>
<path fill-rule="evenodd" clip-rule="evenodd" d="M8.5351 14.6733C8.82131 14.9703 8.82131 15.4519 8.5351 15.7489L6.58072 17.777C6.2945 18.074 5.83046 18.074 5.54425 17.777C5.25804 17.48 5.25804 16.9984 5.54425 16.7014L7.49863 14.6733C7.78484 14.3763 8.24889 14.3763 8.5351 14.6733Z" fill="#555555"/>
</svg>
